<svg width="159" height="64" viewBox="0 0 159 64" fill="none" xmlns="http://www.w3.org/2000/svg">
<path d="M61.5899 53.347V41.219C61.5899 38.5557 61.0555 36.5071 60.0277 34.9911C59 33.4751 57.3966 32.7375 55.2589 32.7375C54.2723 32.7375 53.4089 32.9424 52.7101 33.3112C52.0112 33.6799 51.559 34.1716 51.2712 34.7452C50.9834 35.3188 50.819 35.8105 50.7368 36.2203C50.6546 36.63 50.6134 36.9987 50.6134 37.3265H50.5723L46.4202 33.1882H43.3369V53.4289C43.3369 53.4699 43.3369 53.5109 43.3369 53.5109C43.3369 53.5519 43.3369 53.5928 43.3369 53.5928V53.7157C43.4602 55.2727 44.7347 56.4609 46.338 56.4609C47.9413 56.4609 49.2568 55.2318 49.339 53.7157V41.219C49.339 40.3176 49.5857 39.58 50.1201 39.0064C50.6546 38.4328 51.3945 38.146 52.4223 38.146C53.4501 38.146 54.2311 38.4328 54.7245 39.0064C55.2589 39.58 55.5056 40.3176 55.5056 41.219V53.347C55.5056 53.388 55.5056 53.4289 55.5056 53.4699C55.5056 55.1088 56.8622 56.4609 58.5477 56.4609C60.2333 56.4609 61.5899 55.1088 61.5899 53.4699C61.631 53.4289 61.631 53.388 61.5899 53.347Z" fill="#2E6AB3"/>
<path d="M69.7709 10.2023H67.3454H62.6177V28.3534H65.0432L68.2909 25.1165H68.332C68.332 25.3624 68.3731 25.6492 68.4553 25.977C68.5376 26.3048 68.6609 26.6735 68.8664 27.1242C69.072 27.5749 69.442 27.9437 69.9764 28.2305C70.5109 28.5173 71.1686 28.6812 71.9497 28.6812C73.5941 28.6812 74.8275 28.1076 75.6497 26.9194C76.4719 25.7721 76.883 24.1332 76.883 22.0845V16.799C76.883 14.8323 76.2663 13.2343 75.033 12.0461C73.7586 10.8169 72.0319 10.2023 69.7709 10.2023ZM72.1553 22.0845C72.1553 22.7811 71.9497 23.3547 71.5386 23.8054C71.1275 24.2561 70.552 24.461 69.7298 24.461C68.9076 24.461 68.332 24.2561 67.9209 23.8054C67.5098 23.3547 67.3043 22.7811 67.3043 22.0845V14.2177H69.7298C71.3331 14.2177 72.1553 15.0781 72.1553 16.799V22.0845Z" fill="#EE2E55"/>
<path d="M92.9982 11.7183C91.7649 10.4892 89.9972 9.91553 87.7361 9.91553C85.475 9.91553 83.7073 10.5301 82.474 11.7183C81.2407 12.9475 80.624 14.5045 80.624 16.4712V22.0845C80.624 24.0512 81.2407 25.6492 82.474 26.8374C83.7073 28.0666 85.475 28.6402 87.7361 28.6402C89.9972 28.6402 91.7649 28.0256 92.9982 26.8374C94.2315 25.6082 94.8482 24.0512 94.8482 22.0845V16.4712C94.8482 14.5045 94.2315 12.9066 92.9982 11.7183ZM90.1205 22.0845C90.1205 23.8054 89.2983 24.6658 87.695 24.6658C86.0917 24.6658 85.2695 23.8054 85.2695 22.0845V16.4712C85.2695 14.7503 86.0917 13.8899 87.695 13.8899C89.2983 13.8899 90.1205 14.7503 90.1205 16.4712V22.0845Z" fill="#EE2E55"/>
<path d="M59.1233 25.936V16.4712C59.1233 14.4226 58.7122 12.7837 57.89 11.6364C57.0678 10.4892 55.8345 9.87458 54.1901 9.87458C53.409 9.87458 52.7512 10.0385 52.2168 10.3253C51.6824 10.6121 51.3124 10.9809 51.1068 11.4316C50.9013 11.8823 50.7779 12.251 50.6957 12.5788C50.6135 12.9066 50.5724 13.1934 50.5724 13.4392H50.5313L47.2836 10.2024H44.8992V25.936C44.8992 25.977 44.8992 25.977 44.8992 26.018C44.8992 26.0589 44.8992 26.0589 44.8992 26.0999V26.1819C44.9814 27.3701 46.0091 28.3534 47.2425 28.3534C48.4758 28.3534 49.5035 27.4111 49.5857 26.1819V16.4712C49.5857 15.7747 49.7913 15.2011 50.2024 14.7504C50.6135 14.2997 51.1891 14.0948 52.0113 14.0948C52.8335 14.0948 53.409 14.2997 53.8201 14.7504C54.2312 15.2011 54.4368 15.7747 54.4368 16.4712V25.936C54.4368 25.977 54.4368 26.018 54.4368 26.018C54.4368 27.2881 55.5056 28.3534 56.7801 28.3534C58.0956 28.3534 59.1233 27.3291 59.1233 26.018C59.1233 26.018 59.1233 25.977 59.1233 25.936Z" fill="#EE2E55"/>
<path d="M40.5414 12.3739C40.4592 11.1857 39.4315 10.2023 38.1981 10.2023C36.9648 10.2023 35.9371 11.1447 35.8549 12.3739V22.0845C35.8549 22.7811 35.6493 23.3547 35.2382 23.8054C34.8271 24.2561 34.2516 24.461 33.4293 24.461C32.6071 24.461 32.0316 24.2561 31.6205 23.8054C31.2094 23.3547 31.0038 22.7811 31.0038 22.0845V12.6607C31.0038 12.6198 31.0038 12.5788 31.0038 12.5788C31.0038 11.3086 29.935 10.2433 28.6606 10.2433C27.345 10.2433 26.3173 11.2676 26.3173 12.5788C26.3173 12.6198 26.3173 12.6607 26.3173 12.6607V22.1255C26.3173 24.1742 26.7284 25.8131 27.5506 26.9603C28.3728 28.1076 29.6061 28.7222 31.2505 28.7222C32.0316 28.7222 32.6894 28.5583 33.2238 28.2715C33.7582 27.9847 34.1282 27.6159 34.3338 27.1652C34.5393 26.7145 34.6627 26.3048 34.7449 26.0179C34.8271 25.6902 34.8682 25.4033 34.8682 25.1575H34.9093L38.157 28.3944H40.5825V12.6198C40.5825 12.5788 40.5825 12.5788 40.5825 12.5378C40.5825 12.4968 40.5825 12.4968 40.5825 12.4559V12.3739H40.5414Z" fill="#EE2E55"/>
<path d="M17.6019 9.87458C15.5875 9.87458 14.2309 11.0218 13.4909 13.3163C12.8742 11.0218 11.4353 9.87458 9.13317 9.87458C8.43429 9.87458 7.85875 10.0385 7.40654 10.3253C6.91321 10.6121 6.58433 10.9809 6.41989 11.4316C6.25545 11.8823 6.13212 12.251 6.0499 12.5788C6.00878 12.9066 5.96767 13.1934 5.96767 13.4392H5.92656L2.8844 10.2024H0.5V25.936C0.5 25.977 0.5 26.018 0.5 26.0589C0.5 26.0999 0.5 26.1409 0.5 26.1819V26.2638C0.582221 27.452 1.60998 28.4354 2.84329 28.4354C4.0766 28.4354 5.10436 27.493 5.18658 26.2638V16.2664C5.18658 14.8323 5.84434 14.0948 7.15987 14.0948C8.47541 14.0948 9.13317 14.8323 9.13317 16.2664V25.936C9.13317 25.977 9.13317 26.018 9.13317 26.018C9.13317 27.2881 10.202 28.3534 11.4765 28.3534C12.792 28.3534 13.8197 27.3291 13.8197 26.018C13.8197 25.977 13.8197 25.936 13.8197 25.936V16.2664C13.8197 14.8323 14.4775 14.0948 15.793 14.0948C17.1086 14.0948 17.7663 14.8323 17.7663 16.2664V26.018C17.7663 26.018 17.7663 26.018 17.7663 26.0589C17.7663 26.0589 17.7663 26.0589 17.7663 26.0999V26.2638C17.8486 27.452 18.8763 28.4354 20.1096 28.4354C21.3429 28.4354 22.3707 27.493 22.4529 26.2638V16.2664C22.5351 12.0052 20.8907 9.87458 17.6019 9.87458Z" fill="#EE2E55"/>
<path d="M81.2407 35.2369C79.6785 33.8438 77.4174 33.1473 74.4575 33.1473H68.9076C67.551 33.2292 66.4821 34.3355 66.4821 35.6876C66.4821 37.0397 67.551 38.146 68.9076 38.2279H74.4575C76.513 38.2279 77.5408 39.1703 77.5408 41.0141V42.9398H74.4575C71.5798 42.9398 69.4009 43.5544 67.8798 44.7836C66.3588 46.0128 65.6188 47.7337 65.6188 50.0282C65.6188 52.0768 66.1121 53.7567 67.1399 54.9859C68.1676 56.2151 69.6476 56.8297 71.662 56.8297C72.6486 56.8297 73.512 56.6248 74.2108 56.2561C74.9097 55.8873 75.3619 55.3956 75.6497 54.822C75.8964 54.2484 76.1019 53.7567 76.1841 53.347C76.2664 52.9373 76.3075 52.5685 76.3075 52.2407H76.3486L80.5418 56.42H83.6251V41.0141C83.584 38.5967 82.8029 36.63 81.2407 35.2369ZM77.5408 48.9629C77.5408 49.8643 77.2941 50.6018 76.7597 51.1754C76.2252 51.749 75.4853 52.0359 74.4575 52.0359C72.5664 52.0359 71.662 51.2574 71.662 49.6594C71.662 48.1024 72.6075 47.283 74.4575 47.283H77.5408V48.9629Z" fill="#2E6AB3"/>
<path d="M36.266 51.2984H36.1427H36.1016C36.0605 51.2984 36.0605 51.2984 36.0605 51.2984H30.0995C29.0717 51.2984 28.2906 51.0525 27.7973 50.5199C27.2629 50.0282 27.0162 49.3316 27.0162 48.5122V46.5865H30.3873C33.2239 46.5865 35.3616 46.0128 36.8005 44.9066C38.2393 43.8003 38.9382 42.1614 38.9382 40.0717C38.9382 37.8182 38.1982 36.0154 36.6771 34.7043C35.1561 33.3931 32.9772 32.6966 30.0584 32.6966C27.1395 32.6966 24.9196 33.4341 23.3163 34.8682C21.713 36.3022 20.9319 38.2279 20.9319 40.6044V48.5122C20.9319 50.9296 21.713 52.8144 23.3163 54.2894C24.8785 55.7234 27.1395 56.42 30.0995 56.42H36.266C37.6227 56.338 38.6916 55.2318 38.6916 53.8797C38.6916 52.4866 37.6227 51.3803 36.266 51.2984ZM27.0162 40.6454C27.0162 39.744 27.2629 39.0064 27.7973 38.4328C28.3317 37.8592 29.0717 37.5724 30.0995 37.5724C31.9906 37.5724 32.895 38.3509 32.895 39.9488C32.895 41.5468 31.9495 42.3253 30.0995 42.3253H27.0162V40.6454Z" fill="#2E6AB3"/>
<path d="M16.3275 45.5211C15.5464 44.4968 14.642 43.8003 13.5731 43.3905C12.5043 42.9808 11.3943 42.653 10.3254 42.4482C9.21544 42.2023 8.31102 41.9155 7.52992 41.5877C6.74883 41.219 6.37883 40.7273 6.37883 40.0717C6.37883 38.8835 7.24215 38.2689 8.92767 38.2689H16.5331V33.1473H8.88656C6.37883 33.1473 4.36443 33.7619 2.84334 34.9501C1.32226 36.1383 0.582275 37.8592 0.582275 40.0717C0.582275 41.7106 0.952268 43.0218 1.65114 44.0461C2.39113 45.0704 3.25445 45.767 4.28221 46.1767C5.35107 46.5864 6.37883 46.8732 7.40659 47.1191C8.43435 47.3649 9.29767 47.6517 10.0377 47.9795C10.7365 48.3483 11.1065 48.8399 11.1065 49.4955C11.1065 50.6837 10.2432 51.2983 8.55768 51.2983H3.78888C3.74777 51.2983 3.74777 51.2983 3.70666 51.2983C3.66555 51.2983 3.66555 51.2983 3.62444 51.2983H3.58333C2.22669 51.3803 1.11671 52.4866 1.11671 53.8387C1.11671 55.1908 2.22669 56.338 3.58333 56.379H8.59879C11.271 56.379 13.4087 55.7644 15.012 54.5762C16.6564 53.388 17.4375 51.6671 17.4375 49.4545C17.4375 47.8566 17.0675 46.5455 16.3275 45.5211Z" fill="#2E6AB3"/>
<path d="M88.8049 56.42H94.8481V36.2203C94.8481 36.1793 94.8481 36.1383 94.8481 36.0973C94.8481 34.4584 93.4915 33.1063 91.806 33.1063C90.1616 33.1063 88.846 34.3765 88.8049 35.9744V56.42Z" fill="#2E6AB3"/>
<path d="M123.009 11.9232L124.201 12.0052C125.804 12.5378 127.366 13.808 127.366 13.808L138.918 26.0589C140.357 23.5596 141.18 20.6505 141.18 17.5365C141.18 12.8246 139.288 8.56344 136.246 5.44949C136.246 5.44949 136 5.16268 135.465 4.71197C133.944 3.35986 132.217 2.21262 130.285 1.43413C127.161 0.0820174 123.009 -0.696471 118.076 0.860506C118.076 0.860506 116.102 1.43413 113.718 2.9911C113.636 3.03208 113.553 3.11402 113.471 3.155C113.43 3.19597 113.389 3.23694 113.307 3.23694C108.702 6.47382 105.742 11.6774 105.742 17.5775C105.742 21.8387 107.305 25.7721 109.895 28.8041C110.141 29.0909 111.539 30.566 111.827 30.8528L120.213 39.0884L120.254 39.0474C121.241 40.0308 122.639 40.6454 124.16 40.6454C127.202 40.6454 129.669 38.2279 129.669 35.1959C129.669 33.4341 128.805 31.8771 127.49 30.8528L118.816 21.8387C118.816 21.8387 115.074 18.5609 118.569 13.767C118.487 13.849 120.337 11.8413 123.009 11.9232Z" fill="#EE2E55"/>
<path d="M153.924 25.1985L137.521 7.00646C139.782 9.95652 141.139 13.6031 141.139 17.5775C141.139 20.6505 140.316 23.5596 138.877 26.0999L143.975 31.5084C147.881 35.3598 144.304 39.3342 144.304 39.3342L119.967 63.7951C119.926 63.8771 119.843 63.918 119.802 64H136.164L153.513 45.9718C164.489 35.2369 153.924 25.1985 153.924 25.1985Z" fill="#2E6AB3"/>
</svg>
